<?xml version="1.0" standalone="no"?>
<!DOCTYPE svg PUBLIC "-//W3C//DTD SVG 20010904//EN"
 "http://www.w3.org/TR/2001/REC-SVG-20010904/DTD/svg10.dtd">
<svg version="1.0" xmlns="http://www.w3.org/2000/svg"
 width="343.000000pt" height="343.000000pt" viewBox="0 0 343.000000 343.000000"
 preserveAspectRatio="xMidYMid meet">
<metadata>
Created by potrace 1.14, written by Peter Selinger 2001-2017
</metadata>
<g transform="translate(0.000000,343.000000) scale(0.100000,-0.100000)"
fill="#000000" stroke="none">
<path d="M9 3068 c0 -16 0 -2086 0 -2114 1 -21 5 -22 149 -22 l147 0 0 733 c0
403 1 732 3 731 3 -4 10 -38 17 -91 3 -22 8 -47 10 -55 2 -8 6 -33 10 -55 3
-22 12 -78 20 -125 8 -47 17 -103 20 -125 3 -22 10 -60 15 -85 5 -25 12 -63
15 -85 5 -33 24 -149 99 -610 2 -11 12 -68 21 -127 l18 -107 160 2 161 2 17
110 c9 61 20 128 23 150 4 22 11 72 17 110 5 39 14 95 19 125 5 30 12 75 15
100 8 56 14 98 20 130 3 14 7 48 11 75 3 28 8 59 10 70 2 10 6 37 9 60 3 22
10 67 15 100 5 33 12 78 15 100 4 22 13 81 20 131 8 49 17 115 21 145 3 30 9
57 13 61 3 4 6 -320 5 -720 0 -400 2 -732 4 -738 2 -9 50 -12 160 -10 l157 1
0 1070 0 1070 -236 3 -236 2 -12 -87 c-7 -49 -19 -126 -26 -173 -8 -47 -16
-101 -19 -120 -11 -83 -17 -117 -21 -140 -2 -13 -9 -58 -15 -100 -6 -42 -12
-86 -14 -97 -3 -11 -7 -44 -11 -73 -4 -29 -9 -62 -11 -74 -2 -12 -11 -68 -19
-126 -9 -58 -18 -116 -20 -130 -3 -14 -12 -72 -20 -130 -9 -58 -18 -116 -20
-130 -2 -14 -7 -45 -10 -70 -7 -51 -14 -64 -16 -32 -1 12 -2 25 -3 30 -2 6 -7
42 -22 137 -2 17 -9 53 -14 80 -5 28 -12 70 -15 95 -3 25 -8 52 -10 60 -4 16
-13 72 -21 130 -2 19 -6 42 -9 50 -2 8 -7 35 -10 60 -3 25 -12 81 -20 125 -8
44 -17 98 -20 120 -3 23 -7 52 -10 65 -3 13 -7 40 -10 60 -3 20 -7 45 -9 55
-2 11 -7 42 -10 68 -4 27 -9 59 -12 70 -2 12 -11 67 -20 122 -9 55 -18 107
-19 115 -2 8 -4 21 -4 28 -1 9 -55 12 -236 12 -181 0 -235 -3 -236 -12z"/>
<path d="M1583 2005 l0 -1075 171 2 171 3 0 918 0 917 45 1 c25 0 102 0 173
-1 70 -1 127 3 127 7 0 4 -19 28 -41 53 -22 25 -79 91 -127 147 l-87 103 -216
0 -216 0 0 -1075z"/>
<path d="M2186 3037 c22 -24 84 -94 139 -155 l100 -112 265 1 c214 1 272 -1
300 -13 85 -37 99 -85 98 -350 -1 -135 -5 -218 -14 -247 -16 -53 -56 -98 -98
-107 -17 -4 -147 -7 -288 -6 -142 0 -259 -3 -259 -6 -1 -4 -2 -255 -3 -558
l-1 -551 167 -1 c124 -1 168 2 169 11 1 7 2 187 3 401 1 249 5 390 11 392 6 1
75 5 155 7 114 4 158 10 205 26 157 56 247 170 279 352 21 119 15 539 -8 624
-24 88 -60 155 -108 204 -58 58 -111 87 -199 110 -67 18 -115 20 -513 20
l-438 1 38 -43z"/>
<path d="M9 736 c-1 -24 -1 -358 0 -367 1 -4 111 -5 159 0 6 0 12 12 12 26 0
27 -3 28 -67 25 l-43 -2 0 56 c0 31 5 57 10 57 6 1 19 3 30 4 11 1 26 3 33 4
7 0 13 13 13 29 1 26 -1 27 -42 25 l-44 -2 0 55 0 54 54 0 c54 0 55 0 54 29
l-1 30 -84 -1 c-78 0 -83 -2 -84 -22z"/>
<path d="M210 561 l0 -200 28 2 27 2 5 125 5 125 18 -70 c39 -146 51 -178 71
-181 43 -6 44 -2 44 202 l0 194 -29 0 -29 0 -1 -102 -1 -103 -15 50 c-8 28
-21 74 -29 103 -14 52 -15 52 -54 52 l-40 0 0 -199z"/>
<path d="M436 753 c-3 -4 -6 -17 -6 -30 0 -20 5 -23 34 -23 l34 0 0 -142 c0
-215 -3 -198 32 -195 l30 2 0 168 0 167 29 0 c30 0 45 19 35 45 -5 11 -26 14
-94 14 -48 0 -91 -3 -94 -6z"/>
<path d="M650 561 l0 -197 85 0 85 1 0 28 c0 24 -4 27 -37 28 -70 2 -67 0 -68
57 0 28 3 53 7 53 4 1 23 2 40 3 23 1 34 6 36 20 5 26 -12 40 -50 40 -33 1
-33 1 -33 51 l0 50 53 3 c50 3 52 4 52 33 l0 30 -85 -2 -85 -2 0 -196z"/>
<path d="M859 753 c-3 -20 -5 -369 -2 -378 2 -6 16 -11 31 -10 27 0 27 1 32
82 l5 82 25 -12 c22 -11 25 -20 27 -71 2 -76 7 -87 35 -82 13 3 25 5 28 5 11
2 -1 146 -14 166 -10 16 -10 25 1 45 20 38 17 123 -6 151 -16 20 -29 24 -90
26 -39 2 -72 0 -72 -4z m111 -68 c15 -18 7 -84 -12 -96 -30 -20 -38 -10 -38
51 0 52 2 60 19 60 10 0 24 -7 31 -15z"/>
<path d="M1065 752 c-3 -3 -5 -16 -5 -29 0 -20 5 -23 34 -23 l34 0 0 -157 c0
-87 1 -163 1 -170 1 -7 13 -11 29 -10 l27 2 3 168 2 167 35 0 c31 0 34 3 31
23 -3 12 -5 25 -5 30 -1 8 -178 7 -186 -1z"/>
<path d="M1327 753 c-3 -5 -8 -30 -11 -58 -4 -27 -11 -75 -16 -105 -5 -30 -12
-73 -16 -95 -3 -22 -9 -59 -14 -82 -4 -24 -5 -43 -1 -44 3 0 14 -2 23 -4 21
-4 35 12 40 45 2 20 9 24 38 25 32 0 35 -3 38 -32 2 -18 6 -33 10 -34 4 0 17
-2 29 -5 12 -2 24 0 27 4 4 7 -4 83 -18 162 -3 14 -7 41 -10 60 -3 19 -10 62
-16 95 -5 33 -10 63 -10 68 0 4 -20 7 -44 7 -25 0 -47 -3 -49 -7z m57 -183
l13 -81 -26 3 c-27 3 -29 16 -16 83 2 11 4 35 4 54 1 53 11 31 25 -59z"/>
<path d="M1510 718 c-1 -91 -1 -324 -1 -339 1 -11 11 -16 31 -16 l30 0 0 199
0 198 -30 0 c-29 0 -30 -2 -30 -42z"/>
<path d="M1611 564 c0 -107 3 -194 7 -195 4 0 17 -2 30 -5 22 -4 22 -3 23 129
l1 132 15 -55 c55 -201 57 -205 91 -206 l32 0 0 198 0 198 -30 -2 -31 -2 2
-91 c0 -49 0 -94 -1 -100 -1 -5 -14 35 -29 90 l-28 100 -40 1 -41 1 -1 -193z"/>
<path d="M1989 748 c-16 -6 -17 -11 -8 -25 8 -14 4 -36 -20 -100 -17 -46 -44
-118 -60 -162 l-30 -78 26 -14 c21 -11 27 -11 30 -1 4 9 53 12 204 12 l199 0
0 25 c0 22 -4 24 -55 27 l-55 3 75 108 74 109 72 -144 c39 -78 73 -145 75
-147 2 -2 17 2 34 9 l30 13 -84 163 c-56 108 -83 170 -79 183 3 14 0 21 -8 22
-83 5 -405 2 -420 -3z m354 -42 c-15 -25 -104 -156 -106 -156 -1 0 -2 37 -2
83 l0 82 30 5 c43 8 86 0 78 -14z m-176 -71 c-1 -47 -2 -85 -3 -85 -3 0 -56
78 -91 133 l-23 37 59 0 59 0 -1 -85z m-64 -99 c37 -52 67 -96 67 -98 0 -8
-200 -6 -205 2 -5 9 57 190 66 190 3 0 36 -42 72 -94z"/>
<path d="M2652 561 l3 -196 83 0 82 0 0 27 c0 25 -3 28 -37 29 -21 1 -46 1
-55 0 -15 -2 -18 6 -18 53 0 37 4 56 13 57 6 1 26 2 42 3 25 1 31 6 33 29 3
28 -6 32 -64 28 -19 -2 -21 3 -21 54 l0 55 54 0 c52 0 53 0 53 30 l0 29 -85
-1 -85 -1 2 -196z"/>
<path d="M2859 757 c-4 -6 -4 -379 1 -385 3 -4 15 -8 28 -8 25 -2 25 2 23 149
-1 42 2 77 6 77 8 0 64 -191 63 -215 0 -5 16 -11 35 -11 l35 -1 1 111 c1 133
1 221 0 259 -1 22 -6 27 -25 27 -31 0 -33 -7 -31 -112 0 -48 -2 -85 -5 -82 -3
3 -16 47 -30 97 l-25 92 -38 2 c-20 0 -38 0 -38 0z"/>
<path d="M3084 752 c-5 -4 -10 -16 -9 -27 0 -15 8 -21 33 -23 l32 -3 0 -168
c0 -168 0 -168 23 -167 12 1 27 4 32 8 7 4 10 67 10 167 l-1 161 33 0 c28 0
32 3 31 29 l-1 29 -86 0 c-48 1 -91 -2 -97 -6z"/>
</g>
</svg>
